<svg xmlns="http://www.w3.org/2000/svg" xmlns:xlink="http://www.w3.org/1999/xlink" id="Layer_1" data-name="Layer 1" viewBox="0 0 664.47 168.19"><defs><style>.cls-1{fill:#302e2e;}.cls-2{fill:url(#Dégradé_sans_nom_79);}.cls-3{fill:url(#Dégradé_sans_nom_79-2);}.cls-4{fill:url(#Dégradé_sans_nom_79-3);}.cls-5{fill:url(#Dégradé_sans_nom_79-4);}.cls-6{fill:url(#Dégradé_sans_nom_79-5);}.cls-7{fill:url(#Dégradé_sans_nom_79-6);}.cls-8{fill:url(#Dégradé_sans_nom_79-7);}.cls-9{fill:url(#Dégradé_sans_nom_79-8);}.cls-10{fill:url(#Dégradé_sans_nom_79-9);}.cls-11{fill:url(#Dégradé_sans_nom_79-10);}.cls-12{fill:url(#Dégradé_sans_nom_79-11);}.cls-13{fill:url(#Dégradé_sans_nom_79-12);}.cls-14{fill:#fff;}</style><linearGradient id="D&#xE9;grad&#xE9;_sans_nom_79" y1="83.96" x2="167.58" y2="83.96" gradientUnits="userSpaceOnUse"><stop offset="0" stop-color="#f7485d"></stop><stop offset="1" stop-color="#c43047"></stop></linearGradient><linearGradient id="D&#xE9;grad&#xE9;_sans_nom_79-2" x1="495.77" y1="161.94" x2="669.16" y2="105.46" xlink:href="#D&#xE9;grad&#xE9;_sans_nom_79"></linearGradient><linearGradient id="D&#xE9;grad&#xE9;_sans_nom_79-3" x1="498.13" y1="169.19" x2="671.53" y2="112.71" xlink:href="#D&#xE9;grad&#xE9;_sans_nom_79"></linearGradient><linearGradient id="D&#xE9;grad&#xE9;_sans_nom_79-4" x1="498.62" y1="170.67" x2="672.01" y2="114.2" xlink:href="#D&#xE9;grad&#xE9;_sans_nom_79"></linearGradient><linearGradient id="D&#xE9;grad&#xE9;_sans_nom_79-5" x1="500.55" y1="176.61" x2="673.94" y2="120.13" xlink:href="#D&#xE9;grad&#xE9;_sans_nom_79"></linearGradient><linearGradient id="D&#xE9;grad&#xE9;_sans_nom_79-6" x1="501.86" y1="180.64" x2="675.25" y2="124.16" xlink:href="#D&#xE9;grad&#xE9;_sans_nom_79"></linearGradient><linearGradient id="D&#xE9;grad&#xE9;_sans_nom_79-7" x1="502.53" y1="182.69" x2="675.92" y2="126.21" xlink:href="#D&#xE9;grad&#xE9;_sans_nom_79"></linearGradient><linearGradient id="D&#xE9;grad&#xE9;_sans_nom_79-8" x1="504.51" y1="188.76" x2="677.9" y2="132.29" xlink:href="#D&#xE9;grad&#xE9;_sans_nom_79"></linearGradient><linearGradient id="D&#xE9;grad&#xE9;_sans_nom_79-9" x1="505.85" y1="192.89" x2="679.24" y2="136.41" xlink:href="#D&#xE9;grad&#xE9;_sans_nom_79"></linearGradient><linearGradient id="D&#xE9;grad&#xE9;_sans_nom_79-10" x1="507.62" y1="198.31" x2="681.01" y2="141.84" xlink:href="#D&#xE9;grad&#xE9;_sans_nom_79"></linearGradient><linearGradient id="D&#xE9;grad&#xE9;_sans_nom_79-11" x1="508.63" y1="201.43" x2="682.03" y2="144.95" xlink:href="#D&#xE9;grad&#xE9;_sans_nom_79"></linearGradient><linearGradient id="D&#xE9;grad&#xE9;_sans_nom_79-12" x1="509.22" y1="203.24" x2="682.62" y2="146.76" xlink:href="#D&#xE9;grad&#xE9;_sans_nom_79"></linearGradient></defs><title>Untitled-1</title><path class="cls-1" d="M265.17,26.37V38.14H238.93v95.77h-21V38.14H191.7V26.37a7.91,7.91,0,0,1,7.91-7.91h57.65A7.91,7.91,0,0,1,265.17,26.37Z"></path><path class="cls-1" d="M332.56,91.44l21.65,42.47H330.6l-17.88-38h-11v38.05h-21V28.84a10.38,10.38,0,0,1,10.38-10.38h18.15c31.16,0,44.93,18,44.93,38.7A38,38,0,0,1,332.56,91.44ZM301.74,76.18h11.31c11.32,0,20.17-8.36,20.17-19,0-12-8.85-19-20.17-19H301.74Z"></path><path class="cls-1" d="M427.59,102.42H385c2.13,7.71,8,13.12,17,13.12,6.07,0,12-3.44,15.58-7.38l13.78,12.63c-6.23,8.53-17.55,14.43-29.36,14.43-23.45,0-38.86-18.2-38.86-40.67s13.94-40.67,37.88-40.67c13.12,0,35.59,8.69,35.59,39.2,0,.13,0,.27,0,.4A9.06,9.06,0,0,1,427.59,102.42ZM384.88,86.68h31c-.66-6.89-5.9-13.12-14.76-13.12C392.09,73.56,386.84,79,384.88,86.68Z"></path><path class="cls-1" d="M510,110.46c0,13.28-9.68,24.76-32.47,24.76A43.59,43.59,0,0,1,447,123.09l10.49-15.75c6.89,5.58,13.45,7.87,18.86,8.53,8,1,12.63-1.31,12.63-4.76,0-3.93-6.07-4.59-13.29-6.72-22-6.72-26.07-16.56-26.07-26.89,0-12.63,10.33-23.62,30.67-23.62a47.94,47.94,0,0,1,19.94,5.46,5.13,5.13,0,0,1,2.06,7.15L498,73.77a5.46,5.46,0,0,1-7.11,2.14,27.1,27.1,0,0,0-10.1-2.68c-6.89-.49-10.17,1.81-10.17,4.27,0,2.62,3.28,4.75,10.82,6.56C498.68,88.16,510,94.39,510,110.46Z"></path><path class="cls-1" d="M664.47,94.55c0,22.47-17.22,40.67-39.35,40.67-23.29,0-39.36-18.2-39.36-40.67s15.09-40.67,39.36-40.67C647.25,53.88,664.47,72.09,664.47,94.55Zm-21,0c0-11.64-8-21-18.36-21s-18.37,9.35-18.37,21,8,21,18.37,21S643.48,106.19,643.48,94.55Z"></path><path class="cls-1" d="M554.44,74.87v30.18c0,10.33,6.56,13,13.12,8l7.87,16.24a26.56,26.56,0,0,1-17.06,5.9c-17.38,0-24.92-12.46-24.92-31.49V74.87H520.33V60.21a5,5,0,0,1,5-5h8.1V30.61a7.59,7.59,0,0,1,5.33-7.25l10.36-3.24a4.08,4.08,0,0,1,5.3,3.89V55.19h15.93a5.07,5.07,0,0,1,5.06,5.06V74.87Z"></path><rect class="cls-2" y="0.17" width="167.58" height="167.58" rx="39.14"></rect><path class="cls-3" d="M520.39,162.42H515V146.79h5.25c3.29,0,4.85,1.75,4.85,3.94a3.6,3.6,0,0,1-2.79,3.62,3.93,3.93,0,0,1,3.15,3.89C525.44,160.59,523.67,162.42,520.39,162.42Zm-.27-14.31h-3.58v5.59h3.65c2.12,0,3.3-1.07,3.3-2.82S522.38,148.11,520.12,148.11Zm.09,6.89h-3.67v6.1h3.73c2.26,0,3.6-1.14,3.6-3S522.44,155,520.21,155Z"></path><path class="cls-4" d="M536.6,150.21h1.61L531,168.16h-1.63l2.37-5.81-5-12.14h1.73l4.15,10.42Z"></path><path class="cls-5" d="M545,146.79h10.27v1.3h-4.34v14.33h-1.57V148.09H545Z"></path><path class="cls-6" d="M562.83,162.6c-3.47,0-6-2.42-6-6.28s2.48-6.28,6-6.28a5.48,5.48,0,0,1,5.76,5.65,11.93,11.93,0,0,1,0,1.23H558.42a4.28,4.28,0,0,0,4.41,4.36,3.78,3.78,0,0,0,3.93-2.73h1.66A5.38,5.38,0,0,1,562.83,162.6Zm-4.41-6.95H567a4,4,0,0,0-4.25-4.27A4.22,4.22,0,0,0,558.42,155.65Z"></path><path class="cls-7" d="M576.49,150c3.06,0,5,1.63,5.61,4.15h-1.68a3.71,3.71,0,0,0-3.93-2.81c-2.39,0-4.34,1.63-4.34,4.94s2,5,4.34,5a3.7,3.7,0,0,0,3.93-2.84h1.68a5.35,5.35,0,0,1-5.61,4.16c-3.44,0-5.93-2.42-5.93-6.28S573.05,150,576.49,150Z"></path><path class="cls-8" d="M584.81,145.88h1.56v6.41a4.61,4.61,0,0,1,4.25-2.3c2.71,0,4.87,1.7,4.87,5.28v7.15H594v-7c0-2.7-1.47-4.09-3.71-4.09s-3.87,1.43-3.87,4.41v6.66h-1.56Z"></path><path class="cls-9" d="M607.93,155.44c0-2.7-1.48-4.09-3.71-4.09s-3.87,1.43-3.87,4.41v6.66h-1.57V150.21h1.57v2.08a4.46,4.46,0,0,1,4.16-2.3c2.77,0,5,1.7,5,5.28v7.15h-1.54Z"></path><path class="cls-10" d="M618.1,162.6a6.28,6.28,0,1,1,6.15-6.28A6,6,0,0,1,618.1,162.6Zm0-1.37c2.3,0,4.54-1.56,4.54-4.91s-2.19-4.92-4.52-4.92-4.49,1.56-4.49,4.92S615.78,161.23,618.1,161.23Z"></path><path class="cls-11" d="M633.33,150c3.33,0,5.81,2.43,5.81,6.25s-2.48,6.31-5.81,6.31a5.2,5.2,0,0,1-4.85-2.86v8.45h-1.55v-18h1.55v2.69A5.15,5.15,0,0,1,633.33,150ZM633,151.4c-2.49,0-4.54,1.88-4.54,4.92a4.55,4.55,0,0,0,4.54,4.91c2.57,0,4.53-1.85,4.53-4.94S635.59,151.4,633,151.4Z"></path><path class="cls-12" d="M647.13,162.6c-3.47,0-6-2.42-6-6.28s2.49-6.28,6-6.28a5.48,5.48,0,0,1,5.76,5.65,11.93,11.93,0,0,1,0,1.23H642.72a4.28,4.28,0,0,0,4.41,4.36,3.79,3.79,0,0,0,3.93-2.73h1.65A5.36,5.36,0,0,1,647.13,162.6Zm-4.41-6.95h8.59a4,4,0,0,0-4.25-4.27A4.22,4.22,0,0,0,642.72,155.65Z"></path><path class="cls-13" d="M655.58,145.88h1.56v9.79l4.92-5.46h2.19l-5.79,6.08,5.84,6.13h-2.13l-5-5.48v5.48h-1.56Z"></path><path class="cls-14" d="M139,100.47a10.76,10.76,0,0,0-7.25-10.7.93.93,0,0,1-.74-1c0-1.33-.08-2.65-.18-4-.73-9.22-2.75-18.11-7.06-26.37-5.09-9.77-12.6-16.84-23.11-20.49a52.76,52.76,0,0,0-25.12-2.07c-14.43,2-25,9.62-31.77,22.54C38.88,67.85,36.89,78,36.55,88.55a1.19,1.19,0,0,1-.92,1.29,10.72,10.72,0,0,0-6.77,7.52,19.19,19.19,0,0,0-.31,5.13,10.68,10.68,0,0,0,7.23,10.59,1,1,0,0,1,.76,1.08c0,1.5,0,3,0,4.51a11,11,0,0,0,9.4,11.11,223.17,223.17,0,0,0,37.85,2.86c2.22,0,4.44,0,6.66,0A228.6,228.6,0,0,0,120.68,130c5.87-.89,9.55-4.3,10.26-9.77a39.91,39.91,0,0,0,.1-5.79A1.23,1.23,0,0,1,132,113a10.54,10.54,0,0,0,6.91-8.36A23.38,23.38,0,0,0,139,100.47ZM42.45,87.92a71,71,0,0,1,2.86-17.55,46.07,46.07,0,0,1,7.95-15.84A33.71,33.71,0,0,1,72.43,42.46a47.92,47.92,0,0,1,24.11.35c11.2,3.11,18.67,10.5,23.3,20.94a66.1,66.1,0,0,1,5.28,23.88c.09,1.83.08,1.8-1.81,2Q107.1,91,90.81,91.16c-2.4,0-4.8,0-7.2,0q-16,.09-32.09-1c-2.53-.17-5.07-.41-7.6-.61C42.38,89.44,42.39,89.45,42.45,87.92Zm26.64,9.76q-3.91,3.67-7.85,7.32c-.24.23-.49.78-.92.22l-6.84-8.91c1,0,1.76,0,2.57,0l12.64.56c.28,0,.64-.13.8.15S69.27,97.5,69.09,97.68ZM39.22,107.89a5.09,5.09,0,0,1-4.83-5.29c0-.86,0-1.72,0-2.58a5,5,0,0,1,5.73-4.94c1.56.19,3.13.32,4.69.45a1.39,1.39,0,0,1,1.1.54q4.81,6.32,9.64,12.61c.08.1.13.23.34.6l-11-.86C43,108.26,41.1,108.06,39.22,107.89Zm86,7.2c-.1,1.49.12,3-.13,4.5a5.12,5.12,0,0,1-4.37,4.4,210.44,210.44,0,0,1-24.54,2.57c-4.11.19-8.23.3-10.72.39A243.72,243.72,0,0,1,47.08,124a5.28,5.28,0,0,1-4.72-5.38c0-1.21,0-2.43,0-3.65,0-.83.31-.93,1-.86,6.52.64,13.06,1.06,19.6,1.4q15.6.81,31.24.41c10-.26,20-.84,30-1.81C125,114.06,125.3,114.25,125.24,115.09Zm8-12a5.08,5.08,0,0,1-4.56,4.79c-7.48.76-15,1.32-22.48,1.73-9.8.53-19.6.75-29.41.57-3.89-.08-7.78-.25-12-.38l10.11-9.47a10.74,10.74,0,0,0,1.08-1C77.4,97.49,79.17,97,81.48,97c10.31.22,20.62-.15,30.92-.75,5.18-.3,10.35-.69,15.51-1.24a5.05,5.05,0,0,1,5.28,4.83C133.23,100.92,133.23,102,133.19,103.07Z"></path><path class="cls-14" d="M54.23,0h59.12a0,0,0,0,1,0,0V4.42a3.5,3.5,0,0,1-3.5,3.5H57.72a3.5,3.5,0,0,1-3.5-3.5V0A0,0,0,0,1,54.23,0Z"></path><rect class="cls-14" x="46.77" y="160.04" width="74.04" height="2.21" rx="0.73"></rect></svg>